<?xml version="1.0" encoding="utf-8"?>
<!-- Generator: Adobe Illustrator 27.0.0, SVG Export Plug-In . SVG Version: 6.00 Build 0)  -->
<svg version="1.1" id="Layer_1" xmlns="http://www.w3.org/2000/svg" xmlns:xlink="http://www.w3.org/1999/xlink" x="0px" y="0px"
	 viewBox="0 0 24 24" style="enable-background:new 0 0 24 24;" xml:space="preserve">
<style type="text/css">
	.st0{fill:#FFFFFF;}
</style>
<g>
	<path class="st0" d="M4,5.3L18.7,20c0.4,0.4,0.9,0.4,1.2,0l0,0c0.4-0.4,0.4-0.9,0-1.2L5.3,4C4.9,3.8,4.4,3.8,4,4l0,0
		C3.8,4.4,3.8,4.9,4,5.3z M18.7,4L4,18.7c-0.4,0.4-0.4,0.9,0,1.2l0,0c0.4,0.4,0.9,0.4,1.2,0L20,5.3c0.4-0.4,0.4-0.9,0-1.2l0,0
		C19.6,3.8,19.1,3.8,18.7,4z"/>
</g>
</svg>
