<?xml version="1.0" encoding="utf-8"?>
<!-- Generator: Adobe Illustrator 27.0.0, SVG Export Plug-In . SVG Version: 6.00 Build 0)  -->
<svg version="1.1" id="Layer_1" xmlns="http://www.w3.org/2000/svg" xmlns:xlink="http://www.w3.org/1999/xlink" x="0px" y="0px"
	 viewBox="0 0 24 24" style="enable-background:new 0 0 24 24;" xml:space="preserve">
<style type="text/css">
	.st0{fill:#FFFFFF;}
</style>
<path class="st0" d="M16,4.7h2V3.2h-2V4.7z M19.2,6v2h1.5V6H19.2z M18,9.2h-2v1.5h2V9.2z M14.8,8V6h-1.5v2H14.8z M16,9.2
	c-0.7,0-1.2-0.6-1.2-1.3h-1.5c0,1.5,1.2,2.8,2.8,2.8V9.2z M19.2,8c0,0.7-0.6,1.3-1.2,1.3v1.5c1.5,0,2.8-1.2,2.8-2.8H19.2z M18,4.7
	c0.7,0,1.2,0.6,1.2,1.2h1.5c0-1.5-1.2-2.7-2.8-2.7V4.7z M16,3.2c-1.5,0-2.8,1.2-2.8,2.7h1.5c0-0.7,0.6-1.2,1.2-1.2V3.2z M6,14.7h2
	v-1.5H6V14.7z M9.2,16v2h1.5v-2H9.2z M8,19.2H6v1.5h2V19.2z M4.8,18v-2H3.2v2H4.8z M6,19.2c-0.7,0-1.2-0.6-1.2-1.2H3.2
	c0,1.5,1.2,2.8,2.8,2.8V19.2z M9.2,18c0,0.7-0.6,1.2-1.2,1.2v1.5c1.5,0,2.8-1.2,2.8-2.8H9.2z M8,14.7c0.7,0,1.2,0.6,1.2,1.2h1.5
	c0-1.5-1.2-2.8-2.8-2.8V14.7z M6,13.2c-1.5,0-2.8,1.2-2.8,2.8h1.5c0-0.7,0.6-1.2,1.2-1.2V13.2z M6,4.7h2V3.2H6V4.7z M9.2,6v2h1.5V6
	H9.2z M8,9.2H6v1.5h2V9.2z M4.8,8V6H3.2v2H4.8z M6,9.2C5.3,9.2,4.8,8.7,4.8,8H3.2c0,1.5,1.2,2.8,2.8,2.8V9.2z M9.2,8
	c0,0.7-0.6,1.3-1.2,1.3v1.5c1.5,0,2.8-1.2,2.8-2.8H9.2z M8,4.7c0.7,0,1.2,0.6,1.2,1.2h1.5c0-1.5-1.2-2.7-2.8-2.7V4.7z M6,3.2
	C4.5,3.2,3.2,4.5,3.2,6h1.5c0-0.7,0.6-1.2,1.2-1.2V3.2z M16,14.7h2v-1.5h-2V14.7z M19.2,16v2h1.5v-2H19.2z M18,19.2h-2v1.5h2V19.2z
	 M14.8,18v-2h-1.5v2H14.8z M16,19.2c-0.7,0-1.2-0.6-1.2-1.2h-1.5c0,1.5,1.2,2.8,2.8,2.8V19.2z M19.2,18c0,0.7-0.6,1.2-1.2,1.2v1.5
	c1.5,0,2.8-1.2,2.8-2.8H19.2z M18,14.7c0.7,0,1.2,0.6,1.2,1.2h1.5c0-1.5-1.2-2.8-2.8-2.8V14.7z M16,13.2c-1.5,0-2.8,1.2-2.8,2.8h1.5
	c0-0.7,0.6-1.2,1.2-1.2V13.2z"/>
</svg>
